<svg width="31" height="31" viewBox="0 0 31 31" fill="none" xmlns="http://www.w3.org/2000/svg">
<g id="Group">
<path id="Vector" d="M24.2598 26.9102C24.8876 26.544 25.4806 26.0905 26.0038 25.5673C26.4398 25.1313 26.8235 24.643 27.1549 24.1372C26.4747 24.5209 25.7422 24.8174 24.9923 25.0267C24.8178 25.672 24.5737 26.2998 24.2598 26.9102Z" fill="#DEA100"/>
<path id="Vector_2" d="M24.7296 5.91221C23.9448 5.70292 23.1251 5.61572 22.3054 5.61572C21.8345 5.61572 21.3636 5.6506 20.9102 5.72036C21.2241 6.5575 21.4508 7.42952 21.5729 8.33642C22.7588 8.49338 23.9099 8.82475 24.9738 9.33052C25.0958 8.19689 25.0086 7.04583 24.7296 5.91221Z" fill="#DEA100"/>
<path id="Vector_3" d="M18.015 4.72626C18.1545 4.67394 18.294 4.62162 18.4335 4.5693C17.6313 3.29616 16.5151 2.21485 15.1896 1.4126C13.8816 2.17997 12.8003 3.24383 11.998 4.4821C12.2073 4.55186 12.4341 4.63906 12.6434 4.72626C13.6026 5.10995 14.5095 5.63316 15.3291 6.27845C16.1314 5.63316 17.0383 5.10995 18.015 4.72626Z" fill="#DEA100"/>
<path id="Vector_4" d="M22.3054 25.0445C23.1251 25.0445 23.9274 24.9399 24.7296 24.748C25.1133 23.2481 25.1308 21.6959 24.7994 20.231C23.7879 20.6844 22.7066 20.9983 21.5729 21.1379C21.3985 22.4459 21.0148 23.7016 20.4219 24.8701C21.0323 24.9747 21.6776 25.0445 22.3054 25.0445Z" fill="#DEA100"/>
<path id="Vector_5" d="M4.21982 19.5159C3.45245 19.045 2.73739 18.4695 2.0921 17.8242C1.95258 18.4346 1.88281 19.045 1.88281 19.6729C1.88281 20.0217 1.90026 20.3705 1.95258 20.7019C2.10954 20.8763 2.24907 21.0507 2.42347 21.2076C2.85948 21.6437 3.34781 22.0273 3.87102 22.3587C3.87102 21.4169 3.9931 20.4577 4.21982 19.5159Z" fill="#DEA100"/>
<path id="Vector_6" d="M12.6797 25.899C13.3773 26.7361 14.2144 27.4686 15.1737 28.0267C16.1678 27.4338 17.0398 26.6838 17.7548 25.8118C16.8828 25.4281 16.0631 24.9572 15.3132 24.3643C14.5109 25.0096 13.6215 25.5153 12.6797 25.899Z" fill="#DEA100"/>
<path id="Vector_7" d="M11.3711 29.666C12.5745 30.3113 13.9174 30.6601 15.33 30.6601C16.7427 30.6601 18.0507 30.3287 19.2367 29.6834C17.8066 29.5614 16.4288 29.1253 15.1905 28.4277C14.0046 29.0905 12.6966 29.509 11.3711 29.666Z" fill="#DEA100"/>
<path id="Vector_8" d="M8.31847 5.61572C7.49877 5.61572 6.69651 5.72036 5.89426 5.91221C5.61521 6.99351 5.52801 8.10969 5.63265 9.19099C6.62675 8.75499 7.67317 8.4585 8.77191 8.31898C8.894 7.39464 9.12073 6.52262 9.43466 5.66804C9.06841 5.63316 8.70216 5.61572 8.31847 5.61572Z" fill="#DEA100"/>
<path id="Vector_9" d="M4.79702 17.824C5.18071 16.9345 5.66904 16.0974 6.26201 15.3126C5.45976 14.2661 4.83191 13.1151 4.43078 11.8594C3.4018 12.6268 2.52978 13.586 1.84961 14.7022C2.61698 15.9753 3.61108 17.0392 4.79702 17.824Z" fill="#DEA100"/>
<path id="Vector_10" d="M5.91215 24.7479C6.69696 24.9571 7.51665 25.0443 8.33635 25.0443C8.89444 25.0443 9.4351 24.992 9.95831 24.9048C9.3479 23.7189 8.94676 22.4457 8.78979 21.1203C7.76081 20.9807 6.76673 20.7191 5.82495 20.3354C5.51102 21.7656 5.52846 23.2829 5.91215 24.7479Z" fill="#DEA100"/>
<path id="Vector_11" d="M26.1422 12.0513C25.7411 13.2372 25.1481 14.336 24.3633 15.3301C24.9388 16.0625 25.3923 16.8474 25.7759 17.6845C26.8572 16.9171 27.799 15.9056 28.4966 14.7371C27.8688 13.6907 27.0665 12.7838 26.1422 12.0513Z" fill="#DEA100"/>
<path id="Vector_12" d="M19.4809 26.4048C19.1146 26.8931 18.7309 27.364 18.2949 27.8C18.9053 27.9395 19.5158 28.0093 20.1436 28.0093C20.6145 28.0093 21.0854 27.9744 21.5388 27.8872C21.8528 27.5384 22.1318 27.1547 22.3934 26.771H22.3411C21.347 26.771 20.4052 26.649 19.4809 26.4048Z" fill="#DEA100"/>
<path id="Vector_13" d="M3.03516 23.876C3.38396 24.4864 3.83741 25.0619 4.34318 25.5677C4.98848 26.213 5.70353 26.7362 6.48834 27.1199C6.1221 26.4571 5.84305 25.7421 5.63376 25.0096C4.70942 24.748 3.83741 24.3643 3.03516 23.876Z" fill="#DEA100"/>
<path id="Vector_14" d="M17.109 0.191844C16.5335 0.0697611 15.9231 0 15.3127 0C14.65 0 13.9872 0.0872016 13.3594 0.226724C13.9872 0.436009 14.5976 0.697614 15.1732 1.02898C15.7836 0.680173 16.4463 0.401128 17.109 0.191844Z" fill="#DEA100"/>
<path id="Vector_15" d="M26.5957 10.2374C27.1887 10.6385 27.7468 11.1094 28.2525 11.6151C28.3921 11.0047 28.4618 10.3943 28.4618 9.76647V9.67927C28.3746 9.59207 28.3048 9.50487 28.2176 9.41766C27.7816 8.98166 27.2933 8.59797 26.7701 8.2666C26.7527 8.94678 26.7003 9.59207 26.5957 10.2374Z" fill="#DEA100"/>
<path id="Vector_16" d="M20.1611 4.09869C20.8761 3.95916 21.5912 3.8894 22.3237 3.8894H22.376C22.0446 3.36619 21.6609 2.87786 21.2249 2.44185C20.8587 2.07561 20.4575 1.74424 20.039 1.44775C19.446 1.44775 18.8705 1.51752 18.2949 1.65704C18.9925 2.35465 19.603 3.13947 20.1087 3.9766C20.1087 4.01148 20.1262 4.06381 20.1611 4.09869Z" fill="#DEA100"/>
<path id="Vector_17" d="M0 15.3299C0 16.167 0.122089 17.0042 0.366254 17.789C0.575538 16.7251 0.941779 15.6787 1.48243 14.7369C1.06386 14.0044 0.749935 13.2196 0.52321 12.3999C0.174403 13.3068 0 14.3009 0 15.3299Z" fill="#DEA100"/>
<path id="Vector_18" d="M27.991 7.02868C27.5899 5.86018 26.9097 4.77887 26.0202 3.88942C25.1831 3.05228 24.2064 2.42443 23.1426 2.00586C24.0146 3.06972 24.6424 4.30798 25.0087 5.65089C26.0725 5.94738 27.0841 6.41827 27.991 7.02868Z" fill="#DEA100"/>
<path id="Vector_19" d="M10.9185 26.4746C10.0639 26.6839 9.17448 26.7711 8.26758 26.7711C8.52918 27.1897 8.82569 27.5734 9.15705 27.9396C9.50586 27.9919 9.85466 28.0094 10.2209 28.0094C10.8488 28.0094 11.4592 27.9396 12.0696 27.8001C11.651 27.3815 11.2673 26.9455 10.9185 26.4746Z" fill="#DEA100"/>
<path id="Vector_20" d="M26.3691 19.359C26.3691 19.3938 26.3866 19.4113 26.3866 19.4462C26.6307 20.4054 26.7528 21.382 26.7528 22.3761C27.276 22.0448 27.7644 21.6611 28.2004 21.2251C28.2527 21.1728 28.2876 21.1379 28.3399 21.0856C28.4097 20.6321 28.462 20.1612 28.462 19.6729C28.462 19.045 28.3922 18.4346 28.2527 17.8242C27.6772 18.4172 27.0493 18.923 26.3691 19.359Z" fill="#DEA100"/>
<path id="Vector_21" d="M29.9271 11.9468C29.7179 12.9234 29.3516 13.8478 28.8633 14.7198C29.4911 15.836 29.9097 17.0568 30.0841 18.3299C30.4504 17.3882 30.6422 16.3592 30.6422 15.3128C30.6422 14.1443 30.398 13.0106 29.9271 11.9468Z" fill="#DEA100"/>
<path id="Vector_22" d="M7.6219 1.86621C6.40107 2.26734 5.26745 2.94751 4.34312 3.88929C3.36646 4.86595 2.66884 6.03445 2.28516 7.3076C3.2967 6.55766 4.43032 5.98213 5.65114 5.65077C6.01739 4.25554 6.69756 2.96495 7.6219 1.86621Z" fill="#DEA100"/>
<path id="Vector_23" d="M4.01067 10.0805C3.92347 9.48756 3.87115 8.89459 3.87115 8.28418C3.34794 8.61555 2.85961 8.99923 2.4236 9.43524C2.23176 9.62709 2.05735 9.81893 1.90039 10.0108C1.91783 10.5514 1.98759 11.0921 2.10968 11.6153C2.68521 11.0398 3.33049 10.5165 4.01067 10.0805Z" fill="#DEA100"/>
<path id="Vector_24" d="M24.6259 11.0748C23.2481 10.3597 21.7133 9.95861 20.1088 9.95861H19.9344V9.78421C19.9344 8.51106 19.6728 7.25535 19.2019 6.10429C17.7893 6.57518 16.4987 7.37744 15.4174 8.4413L15.2953 8.56338L15.1732 8.4413C14.0222 7.29023 12.6443 6.47054 11.1445 6.01709C10.6561 7.18559 10.3946 8.45874 10.3946 9.76676V9.95861H10.2202C8.72028 9.95861 7.25529 10.3074 5.94727 10.9527C6.38327 12.5398 7.23784 14.0048 8.42379 15.2082L8.54588 15.3302L8.42379 15.4523L8.30171 15.3477L8.42379 15.4698C7.49945 16.3941 6.7844 17.4928 6.29607 18.6788C7.5169 19.2194 8.84237 19.4985 10.2027 19.4985H10.3771V19.6729C10.3771 21.382 10.8306 23.0214 11.6328 24.4515C12.9408 23.9806 14.1442 23.2133 15.1558 22.2017L15.2779 22.0797L15.3999 22.2017C16.3591 23.161 17.4753 23.8934 18.6962 24.3643C19.481 22.9517 19.917 21.3297 19.917 19.6729V19.4985H20.0914C21.5564 19.4985 22.969 19.1671 24.2422 18.5567C23.7539 17.4056 23.0562 16.3592 22.1668 15.4523L22.2714 15.3302L22.1494 15.4523L22.0273 15.3302L22.1494 15.2082C23.3527 14.0396 24.1899 12.6095 24.6259 11.0748Z" fill="#DEA100"/>
<path id="Vector_25" d="M10.221 4.04602C10.2385 4.02858 10.2385 4.01113 10.2559 3.97625C10.7617 3.12168 11.3546 2.3543 12.0697 1.65669C11.5814 1.55205 11.093 1.48228 10.6047 1.46484C10.1861 1.74389 9.78502 2.07526 9.43621 2.4415C9.00021 2.87751 8.61652 3.36584 8.28516 3.88905H8.33746C8.96532 3.88905 9.59318 3.94137 10.221 4.04602Z" fill="#DEA100"/>
</g>
</svg>
