<svg xmlns="http://www.w3.org/2000/svg" width="1440" height="100" viewBox="0 0 1440 100">
  <defs>
    <style>
      .cls-1 {
        fill: #fff;
      }

      .cls-1, .cls-2 {
        fill-rule: evenodd;
      }

      .cls-2 {
        fill: #dea100;
      }
    </style>
  </defs>
  <path id="Doctums_" data-name="Doctums " class="cls-1" d="M29.79,1.86V2.77c3.25,1.3,5.85,7.02,5.85,11.83V83.763c0,4.81-2.6,10.53-5.85,11.83V96.5H68.4c33.151,0,51.872-18.461,51.872-46.412,0-29.771-18.851-48.232-51.872-48.232H29.79ZM63.461,3.55h4.03c13.391,0,21.711,9.23,21.711,46.542,0,36.661-8.32,44.722-21.711,44.722h-4.03V3.55ZM165.512,97.414c22.36,0,37.571-17.811,37.571-36.4,0-19.631-14.171-36.4-37.571-36.4-22.231,0-37.7,17.941-37.7,36.271C127.81,80.773,141.851,97.414,165.512,97.414Zm0-1.69c-6.111,0-8.581-8.71-8.451-34.841,0.13-26,2.47-34.581,8.451-34.581,6.11,0,8.19,8.58,8.32,34.581C173.962,87.013,171.752,95.724,165.512,95.724Zm80.469,1.69c17.941,0,26.781-10.01,30.942-19.5l-0.52-.65a20.562,20.562,0,0,1-16.381,7.54c-14.951,0-20.931-13.52-21.061-31.981-0.13-15.471,3.64-26.521,11.7-26.521,11.18,0,15.34,21.191,15.99,22.881h0.78l6.37-16.771c-7.02-5.98-16.12-7.8-22.49-7.8-26.651,0-41.6,16.511-41.6,36.271C209.71,83.373,226.481,97.414,245.981,97.414Zm85.151-17.551c-2.47,2.6-4.81,5.98-8.97,5.98-3.9,0-7.671-1.95-7.671-12.09V28.641h16.121v-1.56H314.491V7.45h-0.65A400.767,400.767,0,0,1,277.96,27.861v0.78h8.97V72.323c0,16.641,7.411,25.091,20.281,25.091,12.09,0,18.981-5.07,24.571-16.9Zm76.7-54.212h-0.65c-9.1,2.6-27.691,7.93-33.8,9.49v0.78c4.94,3.9,7.02,7.67,7.02,13.781V85.453a9.694,9.694,0,0,1-5.98,2.34c-3.9,0-7.541-3.38-7.541-13.391V25.651h-0.65c-9.23,2.6-27.691,7.93-33.8,9.49v0.78c4.94,3.9,7.02,7.67,7.02,13.781V69.073c0,13.131,2.99,28.341,20.021,28.341a26.38,26.38,0,0,0,21.841-11.05l0.91,10.14h30.161v-0.78c-3.25-1.3-4.55-7.15-4.55-11.96V25.651Zm128.7,27.3c0-13.26-3.25-28.341-20.02-28.341a27.8,27.8,0,0,0-21.971,10.53c-2.08-4.42-7.8-10.53-19.761-10.53a27.656,27.656,0,0,0-22.491,11.31l-0.26-10.27h-0.78c-9.23,2.6-26.521,7.93-32.5,9.49v0.78c4.81,3.9,6.89,7.67,6.89,13.781V83.763c0,5.33-1.3,10.66-4.55,11.96V96.5h36.661v-0.78c-3.25-1.3-4.55-7.15-4.55-11.96V36.7a11.149,11.149,0,0,1,6.631-2.34c3.9,0,7.54,3.38,7.54,13.391V83.763c0,5.33-1.3,10.66-4.55,11.96V96.5h36.661v-0.78c-3.25-1.3-4.55-7.15-4.55-11.96V36.7a10.111,10.111,0,0,1,6.63-2.34c3.9,0,7.54,3.38,7.54,13.391V83.763c0,5.33-1.3,10.66-4.55,11.96V96.5h36.532v-0.78c-3.251-1.3-4.551-7.15-4.551-11.96V52.952Zm39.517,44.462c18.591,0,33.8-6.63,33.8-22.361,0-8.97-4.81-15.861-18.07-23.531-10.4-6.11-15.471-9.75-15.471-16.641,0-4.81,2.99-8.45,8.84-8.45,12.871,0,16.641,21.321,17.161,22.881h0.78l6.37-15.991c-5.07-4.29-13-8.71-26-8.71-23.271,0-31.981,9.49-31.981,20.671,0,9.88,5.98,16.511,18.721,24.571,8.71,5.59,15.21,11.311,15.21,18.2,0,4.55-2.73,7.54-8.32,7.54-14.3,0-23.141-21.321-23.661-22.881h-0.78l-6.37,15.081C550.44,92.344,561.361,97.414,576.051,97.414Z"/>
  <path id="CHALLENGE" class="cls-2" d="M685.912,97.414c21.451,0,30.941-13.521,36.271-26l-0.65-.91c-8.06,9.23-16.641,9.88-19.631,9.88-17.29,0-27.041-19.111-27.171-41.731C674.471,18.241,679.8,3.29,690.592,3.29c14.95,0,20.541,24.571,21.061,26.391h1.17l8.45-18.2c-9.49-7.93-21.581-10.4-29.9-10.4A47.324,47.324,0,0,0,643.53,48.662C643.53,78.693,664.721,97.414,685.912,97.414ZM823.194,1.86H783.672V2.77c3.25,1.3,5.85,7.02,5.85,11.83V43.2H761.7V14.6c0-4.81,2.6-10.53,5.851-11.83V1.86H728.03V2.77c3.25,1.3,5.85,7.02,5.85,11.83V83.763c0,4.81-2.6,10.53-5.85,11.83V96.5h39.522v-0.91c-3.25-1.3-5.851-7.02-5.851-11.83V45.8h27.821V83.763c0,4.81-2.6,10.53-5.85,11.83V96.5h39.522v-0.91c-3.25-1.3-5.85-7.02-5.85-11.83V14.6c0-4.81,2.6-10.53,5.85-11.83V1.86Zm47.188,0h-1.82L833.33,87.013a20.73,20.73,0,0,1-8.19,8.58V96.5h18.981v-0.91c-3.9-2.21-8.451-8.58-5.591-15.6l5.721-13.78,26.261,0.13,7.02,15.341c3.38,7.41-.52,11.961-6.76,13.91V96.5h46.8v-0.91c-5.33-3.12-7.02-8.58-8.58-11.7ZM856.861,36.181l12.481,27.561H845.291ZM986.993,74.793c-3.77,9.88-13,20.021-34.452,20.021h-0.52V14.6c0-4.81,2.6-10.53,5.851-11.83V1.86H918.35V2.77c3.25,1.3,5.85,7.02,5.85,11.83V83.763c0,4.81-2.6,10.53-5.85,11.83V96.5h66.043l3.38-21.711h-0.78Zm74.877,0c-3.77,9.88-13,20.021-34.45,20.021h-0.52V14.6c0-4.81,2.6-10.53,5.85-11.83V1.86H993.23V2.77c3.25,1.3,5.85,7.02,5.85,11.83V83.763c0,4.81-2.6,10.53-5.85,11.83V96.5h66.04l3.38-21.711h-0.78Zm77.35,0c-3.77,9.75-12.74,19.761-37.44,20.021V45.672h13c2.86,0,9.23,6.5,10.66,12.35h0.78V31.111h-0.78c-1.43,6.11-8.06,12.481-10.66,12.481h-13V3.55c21.06,0.39,30.03,10.4,33.67,20.021h0.78L1132.85,1.86h-64.74V2.77c3.25,1.3,5.85,7.02,5.85,11.83V83.763c0,4.81-2.6,10.53-5.85,11.83V96.5h68.51l3.51-21.711h-0.91ZM1216.96,2.77c3.64,3.38,6.24,8.97,6.24,16.511V56.722L1166.91,1.86H1146.5V2.9c3.25,1.3,5.98,6.89,5.98,23.4V79.083c0,7.54-2.6,13.13-6.24,16.511V96.5h14.56v-0.91c-3.38-2.99-6.24-8.97-6.24-16.511V26.821L1224.11,96.5h1.17V19.281c0-7.54,2.86-13.52,6.24-16.511V1.86h-14.56V2.77Zm71.89,94.644c15.86,0,29.51-4.94,38.35-11.181V64.783c0-4.94,2.73-10.53,5.98-11.83v-0.91h-36.66v0.91c3.25,1.3,5.98,6.89,5.98,11.831V90.913a19.109,19.109,0,0,1-13.39,4.55c-11.44,0-19.11-9.36-18.98-47.192,0.13-35.361,10.01-45.242,23.14-45.242,12.61,0,21.32,12.48,25.74,26.131h0.65L1325.9,9.4c-5.33-2.99-22.75-8.32-33.93-8.32-38.87,0-53.04,24.311-53.04,47.192C1238.93,72.583,1252.19,97.414,1288.85,97.414Zm121.16-22.621c-3.77,9.75-12.74,19.761-37.44,20.021V45.672h13c2.86,0,9.23,6.5,10.66,12.35h0.78V31.111h-0.78c-1.43,6.11-8.06,12.481-10.66,12.481h-13V3.55c21.06,0.39,30.03,10.4,33.67,20.021h0.78L1403.64,1.86H1338.9V2.77c3.25,1.3,5.85,7.02,5.85,11.83V83.763c0,4.81-2.6,10.53-5.85,11.83V96.5h68.51l3.51-21.711h-0.91Z"/>
</svg>
